<?xml version="1.0" encoding="UTF-8" standalone="no"?>
<!DOCTYPE svg PUBLIC "-//W3C//DTD SVG 1.1//EN"
 "http://www.w3.org/Graphics/SVG/1.1/DTD/svg11.dtd">
<!-- Generated by graphviz version 2.43.0 (0)
 -->
<!-- Title: DentalKiosco Pages: 1 -->
<svg width="565pt" height="1039pt"
 viewBox="0.00 0.00 565.00 1038.51" xmlns="http://www.w3.org/2000/svg" xmlns:xlink="http://www.w3.org/1999/xlink">
<g id="graph0" class="graph" transform="scale(1 1) rotate(0) translate(4 1034.51)">
<title>DentalKiosco</title>
<polygon fill="white" stroke="transparent" points="-4,4 -4,-1034.51 561,-1034.51 561,4 -4,4"/>
<g id="clust1" class="cluster">
<title>cluster_routes</title>
<polygon fill="none" stroke="#8888aa" points="0,-371.51 0,-824.51 209,-824.51 209,-371.51 0,-371.51"/>
<text text-anchor="middle" x="104.5" y="-809.31" font-family="Times,serif" font-size="14.00">Rutas (apps/api/src/routes)</text>
</g>
<g id="clust2" class="cluster">
<title>cluster_lib</title>
<polygon fill="none" stroke="#88aa88" points="229,-101.51 229,-932.51 549,-932.51 549,-101.51 229,-101.51"/>
<text text-anchor="middle" x="389" y="-917.31" font-family="Times,serif" font-size="14.00">Lib (apps/api/src/lib)</text>
</g>
<!-- r_pauth -->
<g id="node1" class="node">
<title>r_pauth</title>
<path fill="#eeeeff" stroke="black" d="M143.5,-523.51C143.5,-523.51 65.5,-523.51 65.5,-523.51 59.5,-523.51 53.5,-517.51 53.5,-511.51 53.5,-511.51 53.5,-499.51 53.5,-499.51 53.5,-493.51 59.5,-487.51 65.5,-487.51 65.5,-487.51 143.5,-487.51 143.5,-487.51 149.5,-487.51 155.5,-493.51 155.5,-499.51 155.5,-499.51 155.5,-511.51 155.5,-511.51 155.5,-517.51 149.5,-523.51 143.5,-523.51"/>
<text text-anchor="middle" x="104.5" y="-501.81" font-family="Helvetica,sans-Serif" font-size="14.00">patient&#45;auth</text>
</g>
<!-- l_jwt -->
<g id="node9" class="node">
<title>l_jwt</title>
<path fill="#eeeeff" stroke="black" d="M335.5,-793.51C335.5,-793.51 305.5,-793.51 305.5,-793.51 299.5,-793.51 293.5,-787.51 293.5,-781.51 293.5,-781.51 293.5,-769.51 293.5,-769.51 293.5,-763.51 299.5,-757.51 305.5,-757.51 305.5,-757.51 335.5,-757.51 335.5,-757.51 341.5,-757.51 347.5,-763.51 347.5,-769.51 347.5,-769.51 347.5,-781.51 347.5,-781.51 347.5,-787.51 341.5,-793.51 335.5,-793.51"/>
<text text-anchor="middle" x="320.5" y="-771.81" font-family="Helvetica,sans-Serif" font-size="14.00">jwt</text>
</g>
<!-- r_pauth&#45;&gt;l_jwt -->
<g id="edge1" class="edge">
<title>r_pauth&#45;&gt;l_jwt</title>
<path fill="none" stroke="black" d="M155.73,-506.74C175.19,-509.9 195.9,-517.08 209,-532.51 240.2,-569.26 198.44,-711.23 229,-748.51 242.13,-764.53 264.33,-771.32 283.46,-774.08"/>
<polygon fill="black" stroke="black" points="283.07,-777.56 293.4,-775.21 283.86,-770.6 283.07,-777.56"/>
</g>
<!-- l_otp -->
<g id="node10" class="node">
<title>l_otp</title>
<path fill="#eeeeff" stroke="black" d="M335.5,-415.51C335.5,-415.51 305.5,-415.51 305.5,-415.51 299.5,-415.51 293.5,-409.51 293.5,-403.51 293.5,-403.51 293.5,-391.51 293.5,-391.51 293.5,-385.51 299.5,-379.51 305.5,-379.51 305.5,-379.51 335.5,-379.51 335.5,-379.51 341.5,-379.51 347.5,-385.51 347.5,-391.51 347.5,-391.51 347.5,-403.51 347.5,-403.51 347.5,-409.51 341.5,-415.51 335.5,-415.51"/>
<text text-anchor="middle" x="320.5" y="-393.81" font-family="Helvetica,sans-Serif" font-size="14.00">otp</text>
</g>
<!-- r_pauth&#45;&gt;l_otp -->
<g id="edge2" class="edge">
<title>r_pauth&#45;&gt;l_otp</title>
<path fill="none" stroke="black" d="M155.69,-502.12C174.34,-498.56 194.47,-491.66 209,-478.51 227.97,-461.34 210.33,-442.02 229,-424.51 243.67,-410.77 265.05,-403.99 283.34,-400.67"/>
<polygon fill="black" stroke="black" points="284.06,-404.1 293.41,-399.12 282.99,-397.18 284.06,-404.1"/>
</g>
<!-- l_dl -->
<g id="node14" class="node">
<title>l_dl</title>
<path fill="#eeeeff" stroke="black" d="M349,-631.51C349,-631.51 292,-631.51 292,-631.51 286,-631.51 280,-625.51 280,-619.51 280,-619.51 280,-607.51 280,-607.51 280,-601.51 286,-595.51 292,-595.51 292,-595.51 349,-595.51 349,-595.51 355,-595.51 361,-601.51 361,-607.51 361,-607.51 361,-619.51 361,-619.51 361,-625.51 355,-631.51 349,-631.51"/>
<text text-anchor="middle" x="320.5" y="-609.81" font-family="Helvetica,sans-Serif" font-size="14.00">dentalink</text>
</g>
<!-- r_pauth&#45;&gt;l_dl -->
<g id="edge3" class="edge">
<title>r_pauth&#45;&gt;l_dl</title>
<path fill="none" stroke="black" d="M155.69,-508.91C174.34,-512.47 194.47,-519.37 209,-532.51 227.97,-549.69 210.33,-569.01 229,-586.51 240.18,-596.99 255.25,-603.42 269.89,-607.35"/>
<polygon fill="black" stroke="black" points="269.37,-610.82 279.9,-609.7 270.96,-604.01 269.37,-610.82"/>
</g>
<!-- l_notif -->
<g id="node19" class="node">
<title>l_notif</title>
<path fill="#eeeeff" stroke="black" d="M529,-199.51C529,-199.51 452,-199.51 452,-199.51 446,-199.51 440,-193.51 440,-187.51 440,-187.51 440,-175.51 440,-175.51 440,-169.51 446,-163.51 452,-163.51 452,-163.51 529,-163.51 529,-163.51 535,-163.51 541,-169.51 541,-175.51 541,-175.51 541,-187.51 541,-187.51 541,-193.51 535,-199.51 529,-199.51"/>
<text text-anchor="middle" x="490.5" y="-177.81" font-family="Helvetica,sans-Serif" font-size="14.00">notifications</text>
</g>
<!-- r_pauth&#45;&gt;l_notif -->
<g id="edge4" class="edge">
<title>r_pauth&#45;&gt;l_notif</title>
<path fill="none" stroke="black" d="M155.76,-504.59C175.35,-501.49 196.15,-494.27 209,-478.51 235.58,-445.92 198.48,-129.46 229,-100.51 285.43,-46.99 335.43,-63.81 404,-100.51 429.43,-114.12 418.72,-135.04 440,-154.51 441.11,-155.53 442.26,-156.51 443.44,-157.48"/>
<polygon fill="black" stroke="black" points="441.54,-160.42 451.69,-163.45 445.65,-154.75 441.54,-160.42"/>
</g>
<!-- l_ts -->
<g id="node25" class="node">
<title>l_ts</title>
<path fill="#eeeeff" stroke="black" d="M345.5,-307.51C345.5,-307.51 295.5,-307.51 295.5,-307.51 289.5,-307.51 283.5,-301.51 283.5,-295.51 283.5,-295.51 283.5,-283.51 283.5,-283.51 283.5,-277.51 289.5,-271.51 295.5,-271.51 295.5,-271.51 345.5,-271.51 345.5,-271.51 351.5,-271.51 357.5,-277.51 357.5,-283.51 357.5,-283.51 357.5,-295.51 357.5,-295.51 357.5,-301.51 351.5,-307.51 345.5,-307.51"/>
<text text-anchor="middle" x="320.5" y="-285.81" font-family="Helvetica,sans-Serif" font-size="14.00">turnstile</text>
</g>
<!-- r_pauth&#45;&gt;l_ts -->
<g id="edge5" class="edge">
<title>r_pauth&#45;&gt;l_ts</title>
<path fill="none" stroke="black" d="M155.76,-504.05C175.11,-500.83 195.73,-493.67 209,-478.51 256.79,-423.94 182.16,-371.91 229,-316.51 239.96,-303.55 256.85,-296.66 273.09,-293.05"/>
<polygon fill="black" stroke="black" points="273.86,-296.46 283.05,-291.19 272.58,-289.58 273.86,-296.46"/>
</g>
<!-- r_pme -->
<g id="node2" class="node">
<title>r_pme</title>
<path fill="#eeeeff" stroke="black" d="M138.5,-739.51C138.5,-739.51 70.5,-739.51 70.5,-739.51 64.5,-739.51 58.5,-733.51 58.5,-727.51 58.5,-727.51 58.5,-715.51 58.5,-715.51 58.5,-709.51 64.5,-703.51 70.5,-703.51 70.5,-703.51 138.5,-703.51 138.5,-703.51 144.5,-703.51 150.5,-709.51 150.5,-715.51 150.5,-715.51 150.5,-727.51 150.5,-727.51 150.5,-733.51 144.5,-739.51 138.5,-739.51"/>
<text text-anchor="middle" x="104.5" y="-717.81" font-family="Helvetica,sans-Serif" font-size="14.00">patient&#45;me</text>
</g>
<!-- r_pme&#45;&gt;l_jwt -->
<g id="edge6" class="edge">
<title>r_pme&#45;&gt;l_jwt</title>
<path fill="none" stroke="black" d="M150.62,-732.9C190.19,-742.88 246.96,-757.21 283.53,-766.44"/>
<polygon fill="black" stroke="black" points="282.73,-769.85 293.28,-768.9 284.44,-763.06 282.73,-769.85"/>
</g>
<!-- r_pme&#45;&gt;l_dl -->
<g id="edge7" class="edge">
<title>r_pme&#45;&gt;l_dl</title>
<path fill="none" stroke="black" d="M150.7,-719.01C170.67,-715.75 193.17,-708.85 209,-694.51 227.97,-677.34 210.33,-658.02 229,-640.51 240.18,-630.04 255.25,-623.61 269.89,-619.68"/>
<polygon fill="black" stroke="black" points="270.96,-623.02 279.9,-617.33 269.37,-616.2 270.96,-623.02"/>
</g>
<!-- l_pmid -->
<g id="node23" class="node">
<title>l_pmid</title>
<path fill="#eeeeff" stroke="black" d="M384,-847.51C384,-847.51 257,-847.51 257,-847.51 251,-847.51 245,-841.51 245,-835.51 245,-835.51 245,-823.51 245,-823.51 245,-817.51 251,-811.51 257,-811.51 257,-811.51 384,-811.51 384,-811.51 390,-811.51 396,-817.51 396,-823.51 396,-823.51 396,-835.51 396,-835.51 396,-841.51 390,-847.51 384,-847.51"/>
<text text-anchor="middle" x="320.5" y="-825.81" font-family="Helvetica,sans-Serif" font-size="14.00">patient&#45;middleware</text>
</g>
<!-- r_pme&#45;&gt;l_pmid -->
<g id="edge8" class="edge">
<title>r_pme&#45;&gt;l_pmid</title>
<path fill="none" stroke="black" d="M150.7,-724.02C170.67,-727.28 193.17,-734.18 209,-748.51 227.97,-765.69 210.33,-785.01 229,-802.51 231.19,-804.56 233.52,-806.46 235.98,-808.21"/>
<polygon fill="black" stroke="black" points="234.37,-811.34 244.72,-813.63 238.06,-805.39 234.37,-811.34"/>
</g>
<!-- r_pay -->
<g id="node3" class="node">
<title>r_pay</title>
<path fill="#eeeeff" stroke="black" d="M135.5,-469.51C135.5,-469.51 73.5,-469.51 73.5,-469.51 67.5,-469.51 61.5,-463.51 61.5,-457.51 61.5,-457.51 61.5,-445.51 61.5,-445.51 61.5,-439.51 67.5,-433.51 73.5,-433.51 73.5,-433.51 135.5,-433.51 135.5,-433.51 141.5,-433.51 147.5,-439.51 147.5,-445.51 147.5,-445.51 147.5,-457.51 147.5,-457.51 147.5,-463.51 141.5,-469.51 135.5,-469.51"/>
<text text-anchor="middle" x="104.5" y="-447.81" font-family="Helvetica,sans-Serif" font-size="14.00">payments</text>
</g>
<!-- l_wo -->
<g id="node15" class="node">
<title>l_wo</title>
<path fill="#eeeeff" stroke="black" d="M509.5,-145.51C509.5,-145.51 471.5,-145.51 471.5,-145.51 465.5,-145.51 459.5,-139.51 459.5,-133.51 459.5,-133.51 459.5,-121.51 459.5,-121.51 459.5,-115.51 465.5,-109.51 471.5,-109.51 471.5,-109.51 509.5,-109.51 509.5,-109.51 515.5,-109.51 521.5,-115.51 521.5,-121.51 521.5,-121.51 521.5,-133.51 521.5,-133.51 521.5,-139.51 515.5,-145.51 509.5,-145.51"/>
<text text-anchor="middle" x="490.5" y="-123.81" font-family="Helvetica,sans-Serif" font-size="14.00">wompi</text>
</g>
<!-- r_pay&#45;&gt;l_wo -->
<g id="edge9" class="edge">
<title>r_pay&#45;&gt;l_wo</title>
<path fill="none" stroke="black" d="M147.53,-451.66C169.29,-449.34 194.31,-442.49 209,-424.51 234.57,-393.24 199.66,-89.28 229,-61.51 285.49,-8.05 330.39,-36.41 404,-61.51 427.79,-69.63 450.11,-87.35 465.98,-102.38"/>
<polygon fill="black" stroke="black" points="463.64,-104.99 473.23,-109.49 468.54,-99.99 463.64,-104.99"/>
</g>
<!-- l_rec -->
<g id="node16" class="node">
<title>l_rec</title>
<path fill="#eeeeff" stroke="black" d="M350.5,-145.51C350.5,-145.51 290.5,-145.51 290.5,-145.51 284.5,-145.51 278.5,-139.51 278.5,-133.51 278.5,-133.51 278.5,-121.51 278.5,-121.51 278.5,-115.51 284.5,-109.51 290.5,-109.51 290.5,-109.51 350.5,-109.51 350.5,-109.51 356.5,-109.51 362.5,-115.51 362.5,-121.51 362.5,-121.51 362.5,-133.51 362.5,-133.51 362.5,-139.51 356.5,-145.51 350.5,-145.51"/>
<text text-anchor="middle" x="320.5" y="-123.81" font-family="Helvetica,sans-Serif" font-size="14.00">reconciler</text>
</g>
<!-- r_pay&#45;&gt;l_rec -->
<g id="edge10" class="edge">
<title>r_pay&#45;&gt;l_rec</title>
<path fill="none" stroke="black" d="M147.66,-451.52C169.31,-449.15 194.2,-442.28 209,-424.51 247.52,-378.3 191.29,-201.39 229,-154.51 238.6,-142.58 253.25,-135.76 267.98,-131.91"/>
<polygon fill="black" stroke="black" points="269.11,-135.24 278.14,-129.69 267.62,-128.41 269.11,-135.24"/>
</g>
<!-- l_audit -->
<g id="node20" class="node">
<title>l_audit</title>
<path fill="#eeeeff" stroke="black" d="M335.5,-577.51C335.5,-577.51 305.5,-577.51 305.5,-577.51 299.5,-577.51 293.5,-571.51 293.5,-565.51 293.5,-565.51 293.5,-553.51 293.5,-553.51 293.5,-547.51 299.5,-541.51 305.5,-541.51 305.5,-541.51 335.5,-541.51 335.5,-541.51 341.5,-541.51 347.5,-547.51 347.5,-553.51 347.5,-553.51 347.5,-565.51 347.5,-565.51 347.5,-571.51 341.5,-577.51 335.5,-577.51"/>
<text text-anchor="middle" x="320.5" y="-555.81" font-family="Helvetica,sans-Serif" font-size="14.00">audit</text>
</g>
<!-- r_pay&#45;&gt;l_audit -->
<g id="edge11" class="edge">
<title>r_pay&#45;&gt;l_audit</title>
<path fill="none" stroke="black" d="M147.59,-453.54C168.31,-456.58 192.34,-463.44 209,-478.51 227.97,-495.69 210.33,-515.01 229,-532.51 243.67,-546.26 265.05,-553.04 283.34,-556.36"/>
<polygon fill="black" stroke="black" points="282.99,-559.85 293.41,-557.91 284.06,-552.93 282.99,-559.85"/>
</g>
<!-- r_book -->
<g id="node4" class="node">
<title>r_book</title>
<path fill="#eeeeff" stroke="black" d="M128.5,-631.51C128.5,-631.51 80.5,-631.51 80.5,-631.51 74.5,-631.51 68.5,-625.51 68.5,-619.51 68.5,-619.51 68.5,-607.51 68.5,-607.51 68.5,-601.51 74.5,-595.51 80.5,-595.51 80.5,-595.51 128.5,-595.51 128.5,-595.51 134.5,-595.51 140.5,-601.51 140.5,-607.51 140.5,-607.51 140.5,-619.51 140.5,-619.51 140.5,-625.51 134.5,-631.51 128.5,-631.51"/>
<text text-anchor="middle" x="104.5" y="-609.81" font-family="Helvetica,sans-Serif" font-size="14.00">booking</text>
</g>
<!-- r_book&#45;&gt;l_dl -->
<g id="edge12" class="edge">
<title>r_book&#45;&gt;l_dl</title>
<path fill="none" stroke="black" d="M140.84,-613.51C175.93,-613.51 230.05,-613.51 269.53,-613.51"/>
<polygon fill="black" stroke="black" points="269.74,-617.01 279.74,-613.51 269.74,-610.01 269.74,-617.01"/>
</g>
<!-- r_kiosk -->
<g id="node5" class="node">
<title>r_kiosk</title>
<path fill="#eeeeff" stroke="black" d="M119.5,-793.51C119.5,-793.51 89.5,-793.51 89.5,-793.51 83.5,-793.51 77.5,-787.51 77.5,-781.51 77.5,-781.51 77.5,-769.51 77.5,-769.51 77.5,-763.51 83.5,-757.51 89.5,-757.51 89.5,-757.51 119.5,-757.51 119.5,-757.51 125.5,-757.51 131.5,-763.51 131.5,-769.51 131.5,-769.51 131.5,-781.51 131.5,-781.51 131.5,-787.51 125.5,-793.51 119.5,-793.51"/>
<text text-anchor="middle" x="104.5" y="-771.81" font-family="Helvetica,sans-Serif" font-size="14.00">kiosk</text>
</g>
<!-- r_kiosk&#45;&gt;l_jwt -->
<g id="edge13" class="edge">
<title>r_kiosk&#45;&gt;l_jwt</title>
<path fill="none" stroke="black" d="M131.74,-775.51C169.79,-775.51 240.4,-775.51 283.35,-775.51"/>
<polygon fill="black" stroke="black" points="283.38,-779.01 293.38,-775.51 283.38,-772.01 283.38,-779.01"/>
</g>
<!-- r_aauth -->
<g id="node6" class="node">
<title>r_aauth</title>
<path fill="#eeeeff" stroke="black" d="M141,-685.51C141,-685.51 68,-685.51 68,-685.51 62,-685.51 56,-679.51 56,-673.51 56,-673.51 56,-661.51 56,-661.51 56,-655.51 62,-649.51 68,-649.51 68,-649.51 141,-649.51 141,-649.51 147,-649.51 153,-655.51 153,-661.51 153,-661.51 153,-673.51 153,-673.51 153,-679.51 147,-685.51 141,-685.51"/>
<text text-anchor="middle" x="104.5" y="-663.81" font-family="Helvetica,sans-Serif" font-size="14.00">admin&#45;auth</text>
</g>
<!-- r_aauth&#45;&gt;l_jwt -->
<g id="edge14" class="edge">
<title>r_aauth&#45;&gt;l_jwt</title>
<path fill="none" stroke="black" d="M153.05,-670.42C172.42,-673.83 193.79,-680.74 209,-694.51 227.97,-711.69 210.33,-731.01 229,-748.51 243.67,-762.26 265.05,-769.04 283.34,-772.36"/>
<polygon fill="black" stroke="black" points="282.99,-775.85 293.41,-773.91 284.06,-768.93 282.99,-775.85"/>
</g>
<!-- l_totp -->
<g id="node11" class="node">
<title>l_totp</title>
<path fill="#eeeeff" stroke="black" d="M335.5,-739.51C335.5,-739.51 305.5,-739.51 305.5,-739.51 299.5,-739.51 293.5,-733.51 293.5,-727.51 293.5,-727.51 293.5,-715.51 293.5,-715.51 293.5,-709.51 299.5,-703.51 305.5,-703.51 305.5,-703.51 335.5,-703.51 335.5,-703.51 341.5,-703.51 347.5,-709.51 347.5,-715.51 347.5,-715.51 347.5,-727.51 347.5,-727.51 347.5,-733.51 341.5,-739.51 335.5,-739.51"/>
<text text-anchor="middle" x="320.5" y="-717.81" font-family="Helvetica,sans-Serif" font-size="14.00">totp</text>
</g>
<!-- r_aauth&#45;&gt;l_totp -->
<g id="edge15" class="edge">
<title>r_aauth&#45;&gt;l_totp</title>
<path fill="none" stroke="black" d="M153.26,-679.57C192.61,-689.5 247.58,-703.37 283.35,-712.39"/>
<polygon fill="black" stroke="black" points="282.8,-715.86 293.35,-714.92 284.51,-709.08 282.8,-715.86"/>
</g>
<!-- l_pwd -->
<g id="node12" class="node">
<title>l_pwd</title>
<path fill="#eeeeff" stroke="black" d="M392,-685.51C392,-685.51 249,-685.51 249,-685.51 243,-685.51 237,-679.51 237,-673.51 237,-673.51 237,-661.51 237,-661.51 237,-655.51 243,-649.51 249,-649.51 249,-649.51 392,-649.51 392,-649.51 398,-649.51 404,-655.51 404,-661.51 404,-661.51 404,-673.51 404,-673.51 404,-679.51 398,-685.51 392,-685.51"/>
<text text-anchor="middle" x="320.5" y="-663.81" font-family="Helvetica,sans-Serif" font-size="14.00">passwords (argon2id)</text>
</g>
<!-- r_aauth&#45;&gt;l_pwd -->
<g id="edge16" class="edge">
<title>r_aauth&#45;&gt;l_pwd</title>
<path fill="none" stroke="black" d="M153.26,-667.51C175.01,-667.51 201.53,-667.51 226.94,-667.51"/>
<polygon fill="black" stroke="black" points="226.99,-671.01 236.99,-667.51 226.99,-664.01 226.99,-671.01"/>
</g>
<!-- r_aauth&#45;&gt;l_audit -->
<g id="edge17" class="edge">
<title>r_aauth&#45;&gt;l_audit</title>
<path fill="none" stroke="black" d="M153.05,-664.61C172.42,-661.2 193.79,-654.28 209,-640.51 227.97,-623.34 210.33,-604.02 229,-586.51 243.67,-572.77 265.05,-565.99 283.34,-562.67"/>
<polygon fill="black" stroke="black" points="284.06,-566.1 293.41,-561.12 282.99,-559.18 284.06,-566.1"/>
</g>
<!-- l_amid -->
<g id="node22" class="node">
<title>l_amid</title>
<path fill="#eeeeff" stroke="black" d="M375.5,-469.51C375.5,-469.51 265.5,-469.51 265.5,-469.51 259.5,-469.51 253.5,-463.51 253.5,-457.51 253.5,-457.51 253.5,-445.51 253.5,-445.51 253.5,-439.51 259.5,-433.51 265.5,-433.51 265.5,-433.51 375.5,-433.51 375.5,-433.51 381.5,-433.51 387.5,-439.51 387.5,-445.51 387.5,-445.51 387.5,-457.51 387.5,-457.51 387.5,-463.51 381.5,-469.51 375.5,-469.51"/>
<text text-anchor="middle" x="320.5" y="-447.81" font-family="Helvetica,sans-Serif" font-size="14.00">auth&#45;middleware</text>
</g>
<!-- r_aauth&#45;&gt;l_amid -->
<g id="edge18" class="edge">
<title>r_aauth&#45;&gt;l_amid</title>
<path fill="none" stroke="black" d="M153.1,-666.47C173.2,-663.47 195.11,-656.37 209,-640.51 256.79,-585.94 182.16,-533.91 229,-478.51 233.24,-473.5 238.36,-469.4 243.99,-466.04"/>
<polygon fill="black" stroke="black" points="245.88,-469.01 253.21,-461.35 242.71,-462.77 245.88,-469.01"/>
</g>
<!-- r_aclinic -->
<g id="node7" class="node">
<title>r_aclinic</title>
<path fill="#eeeeff" stroke="black" d="M143,-577.51C143,-577.51 66,-577.51 66,-577.51 60,-577.51 54,-571.51 54,-565.51 54,-565.51 54,-553.51 54,-553.51 54,-547.51 60,-541.51 66,-541.51 66,-541.51 143,-541.51 143,-541.51 149,-541.51 155,-547.51 155,-553.51 155,-553.51 155,-565.51 155,-565.51 155,-571.51 149,-577.51 143,-577.51"/>
<text text-anchor="middle" x="104.5" y="-555.81" font-family="Helvetica,sans-Serif" font-size="14.00">admin&#45;clinic</text>
</g>
<!-- l_crypto -->
<g id="node13" class="node">
<title>l_crypto</title>
<path fill="#eeeeff" stroke="black" d="M377.5,-523.51C377.5,-523.51 263.5,-523.51 263.5,-523.51 257.5,-523.51 251.5,-517.51 251.5,-511.51 251.5,-511.51 251.5,-499.51 251.5,-499.51 251.5,-493.51 257.5,-487.51 263.5,-487.51 263.5,-487.51 377.5,-487.51 377.5,-487.51 383.5,-487.51 389.5,-493.51 389.5,-499.51 389.5,-499.51 389.5,-511.51 389.5,-511.51 389.5,-517.51 383.5,-523.51 377.5,-523.51"/>
<text text-anchor="middle" x="320.5" y="-501.81" font-family="Helvetica,sans-Serif" font-size="14.00">crypto (pgcrypto)</text>
</g>
<!-- r_aclinic&#45;&gt;l_crypto -->
<g id="edge19" class="edge">
<title>r_aclinic&#45;&gt;l_crypto</title>
<path fill="none" stroke="black" d="M155.13,-546.99C180.76,-540.52 212.61,-532.49 241.44,-525.21"/>
<polygon fill="black" stroke="black" points="242.66,-528.52 251.5,-522.67 240.94,-521.73 242.66,-528.52"/>
</g>
<!-- r_aclinic&#45;&gt;l_audit -->
<g id="edge20" class="edge">
<title>r_aclinic&#45;&gt;l_audit</title>
<path fill="none" stroke="black" d="M155.13,-559.51C194.19,-559.51 247.71,-559.51 282.93,-559.51"/>
<polygon fill="black" stroke="black" points="283.23,-563.01 293.23,-559.51 283.23,-556.01 283.23,-563.01"/>
</g>
<!-- r_aclinic&#45;&gt;l_amid -->
<g id="edge21" class="edge">
<title>r_aclinic&#45;&gt;l_amid</title>
<path fill="none" stroke="black" d="M155.16,-556.22C173.96,-552.69 194.34,-545.79 209,-532.51 227.97,-515.34 210.33,-496.02 229,-478.51 233.45,-474.35 238.51,-470.82 243.91,-467.84"/>
<polygon fill="black" stroke="black" points="245.8,-470.81 253.28,-463.31 242.76,-464.51 245.8,-470.81"/>
</g>
<!-- r_atx -->
<g id="node8" class="node">
<title>r_atx</title>
<path fill="#eeeeff" stroke="black" d="M168,-415.51C168,-415.51 41,-415.51 41,-415.51 35,-415.51 29,-409.51 29,-403.51 29,-403.51 29,-391.51 29,-391.51 29,-385.51 35,-379.51 41,-379.51 41,-379.51 168,-379.51 168,-379.51 174,-379.51 180,-385.51 180,-391.51 180,-391.51 180,-403.51 180,-403.51 180,-409.51 174,-415.51 168,-415.51"/>
<text text-anchor="middle" x="104.5" y="-393.81" font-family="Helvetica,sans-Serif" font-size="14.00">admin&#45;transactions</text>
</g>
<!-- r_atx&#45;&gt;l_wo -->
<g id="edge22" class="edge">
<title>r_atx&#45;&gt;l_wo</title>
<path fill="none" stroke="black" d="M104.94,-379.16C104.18,-317.12 111.1,-114.31 229,-29.51 292.14,15.9 333.2,2.68 404,-29.51 435.75,-43.95 460.32,-76.65 474.81,-100.32"/>
<polygon fill="black" stroke="black" points="471.95,-102.36 480.04,-109.2 477.98,-98.81 471.95,-102.36"/>
</g>
<!-- r_atx&#45;&gt;l_amid -->
<g id="edge23" class="edge">
<title>r_atx&#45;&gt;l_amid</title>
<path fill="none" stroke="black" d="M177.06,-415.57C198.45,-420.97 221.97,-426.9 243.62,-432.37"/>
<polygon fill="black" stroke="black" points="242.88,-435.79 253.43,-434.84 244.59,-429 242.88,-435.79"/>
</g>
<!-- RD -->
<g id="node27" class="node">
<title>RD</title>
<path fill="#ffeeee" stroke="black" d="M505.5,-1030.51C505.5,-1030.51 475.5,-1030.51 475.5,-1030.51 469.5,-1030.51 463.5,-1024.51 463.5,-1018.51 463.5,-1018.51 463.5,-1006.51 463.5,-1006.51 463.5,-1000.51 469.5,-994.51 475.5,-994.51 475.5,-994.51 505.5,-994.51 505.5,-994.51 511.5,-994.51 517.5,-1000.51 517.5,-1006.51 517.5,-1006.51 517.5,-1018.51 517.5,-1018.51 517.5,-1024.51 511.5,-1030.51 505.5,-1030.51"/>
<text text-anchor="middle" x="490.5" y="-1008.81" font-family="Helvetica,sans-Serif" font-size="14.00">Redis</text>
</g>
<!-- l_jwt&#45;&gt;RD -->
<g id="edge25" class="edge">
<title>l_jwt&#45;&gt;RD</title>
<path fill="none" stroke="black" d="M347.57,-777.27C365.99,-779.93 389.82,-786.49 404,-802.51 458.93,-864.59 390.97,-918.67 440,-985.51 443.84,-990.75 449.01,-995.08 454.56,-998.63"/>
<polygon fill="black" stroke="black" points="453.02,-1001.78 463.47,-1003.57 456.42,-995.66 453.02,-1001.78"/>
</g>
<!-- l_otp&#45;&gt;RD -->
<g id="edge24" class="edge">
<title>l_otp&#45;&gt;RD</title>
<path fill="none" stroke="black" d="M347.82,-398.7C366.6,-401.05 390.8,-407.48 404,-424.51 480.52,-523.26 372.82,-880.19 440,-985.51 443.56,-991.09 448.69,-995.61 454.31,-999.23"/>
<polygon fill="black" stroke="black" points="452.95,-1002.48 463.4,-1004.22 456.32,-996.34 452.95,-1002.48"/>
</g>
<!-- PG -->
<g id="node26" class="node">
<title>PG</title>
<path fill="#ffeeee" stroke="black" d="M526.5,-976.51C526.5,-976.51 454.5,-976.51 454.5,-976.51 448.5,-976.51 442.5,-970.51 442.5,-964.51 442.5,-964.51 442.5,-952.51 442.5,-952.51 442.5,-946.51 448.5,-940.51 454.5,-940.51 454.5,-940.51 526.5,-940.51 526.5,-940.51 532.5,-940.51 538.5,-946.51 538.5,-952.51 538.5,-952.51 538.5,-964.51 538.5,-964.51 538.5,-970.51 532.5,-976.51 526.5,-976.51"/>
<text text-anchor="middle" x="490.5" y="-954.81" font-family="Helvetica,sans-Serif" font-size="14.00">PostgreSQL</text>
</g>
<!-- l_pwd&#45;&gt;PG -->
<g id="edge29" class="edge">
<title>l_pwd&#45;&gt;PG</title>
<path fill="none" stroke="black" d="M394.41,-685.68C397.94,-688.25 401.18,-691.17 404,-694.51 472.02,-775.09 380.08,-845.57 437.53,-932.16"/>
<polygon fill="black" stroke="black" points="434.7,-934.22 443.36,-940.32 440.39,-930.15 434.7,-934.22"/>
</g>
<!-- l_crypto&#45;&gt;PG -->
<g id="edge27" class="edge">
<title>l_crypto&#45;&gt;PG</title>
<path fill="none" stroke="black" d="M389.81,-520.19C395.19,-523.5 400.06,-527.56 404,-532.51 458.17,-600.66 392.38,-845.63 437.98,-931.85"/>
<polygon fill="black" stroke="black" points="435.02,-933.72 443.25,-940.4 440.98,-930.05 435.02,-933.72"/>
</g>
<!-- l_rec&#45;&gt;l_wo -->
<g id="edge26" class="edge">
<title>l_rec&#45;&gt;l_wo</title>
<path fill="none" stroke="black" d="M362.6,-127.51C388.89,-127.51 422.86,-127.51 449.03,-127.51"/>
<polygon fill="black" stroke="black" points="449.37,-131.01 459.36,-127.51 449.36,-124.01 449.37,-131.01"/>
</g>
<!-- l_sms -->
<g id="node17" class="node">
<title>l_sms</title>
<path fill="#eeeeff" stroke="black" d="M335.5,-253.51C335.5,-253.51 305.5,-253.51 305.5,-253.51 299.5,-253.51 293.5,-247.51 293.5,-241.51 293.5,-241.51 293.5,-229.51 293.5,-229.51 293.5,-223.51 299.5,-217.51 305.5,-217.51 305.5,-217.51 335.5,-217.51 335.5,-217.51 341.5,-217.51 347.5,-223.51 347.5,-229.51 347.5,-229.51 347.5,-241.51 347.5,-241.51 347.5,-247.51 341.5,-253.51 335.5,-253.51"/>
<text text-anchor="middle" x="320.5" y="-231.81" font-family="Helvetica,sans-Serif" font-size="14.00">sms</text>
</g>
<!-- l_sms&#45;&gt;l_notif -->
<g id="edge30" class="edge">
<title>l_sms&#45;&gt;l_notif</title>
<path fill="none" stroke="black" d="M357.51,-223.94C381.51,-216.22 413.37,-205.98 439.78,-197.5"/>
<polygon fill="black" stroke="black" points="356.2,-220.68 347.75,-227.08 358.34,-227.35 356.2,-220.68"/>
</g>
<!-- l_mail -->
<g id="node18" class="node">
<title>l_mail</title>
<path fill="#eeeeff" stroke="black" d="M335.5,-199.51C335.5,-199.51 305.5,-199.51 305.5,-199.51 299.5,-199.51 293.5,-193.51 293.5,-187.51 293.5,-187.51 293.5,-175.51 293.5,-175.51 293.5,-169.51 299.5,-163.51 305.5,-163.51 305.5,-163.51 335.5,-163.51 335.5,-163.51 341.5,-163.51 347.5,-169.51 347.5,-175.51 347.5,-175.51 347.5,-187.51 347.5,-187.51 347.5,-193.51 341.5,-199.51 335.5,-199.51"/>
<text text-anchor="middle" x="320.5" y="-177.81" font-family="Helvetica,sans-Serif" font-size="14.00">email</text>
</g>
<!-- l_mail&#45;&gt;l_notif -->
<g id="edge31" class="edge">
<title>l_mail&#45;&gt;l_notif</title>
<path fill="none" stroke="black" d="M357.84,-181.51C381.8,-181.51 413.49,-181.51 439.78,-181.51"/>
<polygon fill="black" stroke="black" points="357.75,-178.01 347.75,-181.51 357.75,-185.01 357.75,-178.01"/>
</g>
<!-- l_audit&#45;&gt;PG -->
<g id="edge28" class="edge">
<title>l_audit&#45;&gt;PG</title>
<path fill="none" stroke="black" d="M347.63,-560.85C366.32,-563.28 390.47,-569.74 404,-586.51 500.04,-705.64 354.68,-805.55 437.49,-932.01"/>
<polygon fill="black" stroke="black" points="434.71,-934.15 443.28,-940.38 440.47,-930.16 434.71,-934.15"/>
</g>
<!-- l_log -->
<g id="node21" class="node">
<title>l_log</title>
<path fill="#eeeeff" stroke="black" d="M380,-361.51C380,-361.51 261,-361.51 261,-361.51 255,-361.51 249,-355.51 249,-349.51 249,-349.51 249,-337.51 249,-337.51 249,-331.51 255,-325.51 261,-325.51 261,-325.51 380,-325.51 380,-325.51 386,-325.51 392,-331.51 392,-337.51 392,-337.51 392,-349.51 392,-349.51 392,-355.51 386,-361.51 380,-361.51"/>
<text text-anchor="middle" x="320.5" y="-339.81" font-family="Helvetica,sans-Serif" font-size="14.00">logger (redacción)</text>
</g>
<!-- l_lic -->
<g id="node24" class="node">
<title>l_lic</title>
<path fill="#eeeeff" stroke="black" d="M346.5,-901.51C346.5,-901.51 294.5,-901.51 294.5,-901.51 288.5,-901.51 282.5,-895.51 282.5,-889.51 282.5,-889.51 282.5,-877.51 282.5,-877.51 282.5,-871.51 288.5,-865.51 294.5,-865.51 294.5,-865.51 346.5,-865.51 346.5,-865.51 352.5,-865.51 358.5,-871.51 358.5,-877.51 358.5,-877.51 358.5,-889.51 358.5,-889.51 358.5,-895.51 352.5,-901.51 346.5,-901.51"/>
<text text-anchor="middle" x="320.5" y="-879.81" font-family="Helvetica,sans-Serif" font-size="14.00">license/*</text>
</g>
<!-- l_lic&#45;&gt;RD -->
<g id="edge32" class="edge">
<title>l_lic&#45;&gt;RD</title>
<path fill="none" stroke="black" d="M340.18,-901.81C362.71,-923.33 402.27,-959.42 440,-985.51 444.58,-988.68 449.57,-991.77 454.56,-994.67"/>
<polygon fill="black" stroke="black" points="453.01,-997.81 463.45,-999.64 456.43,-991.7 453.01,-997.81"/>
</g>
</g>
</svg>
